<svg width="71" height="32" viewBox="0 0 71 32" fill="none" xmlns="http://www.w3.org/2000/svg">
<path fill-rule="evenodd" clip-rule="evenodd" d="M61.0264 0.205293C59.7738 -0.338708 58.3174 0.235687 57.7734 1.48824C57.2294 2.74079 57.8038 4.19719 59.0564 4.74119C61.8748 5.96529 64.262 8.00562 65.9101 10.5991C66.6425 11.7516 68.1706 12.0922 69.3232 11.3598C70.4757 10.6274 70.8163 9.09932 70.0839 7.94676C67.9059 4.51938 64.7511 1.823 61.0264 0.205293ZM53.0377 6.24407C45.5209 6.24407 40.1801 11.5849 40.1801 19.1017C40.1801 26.6678 45.5209 31.9592 53.0377 31.9592C60.5544 31.9592 65.8953 26.6184 65.8953 19.1017C65.8953 11.5849 60.5544 6.24407 53.0377 6.24407ZM53.0377 10.7442C57.7851 10.7442 60.95 14.107 60.95 19.1017C60.95 24.0963 57.7356 27.4096 53.0377 27.4096C48.3397 27.4096 45.1253 24.0963 45.1253 19.1017C45.1253 14.107 48.2903 10.7442 53.0377 10.7442ZM3.24616 10.583C1.06252 13.0459 -0.096599 16.2507 0.00630977 19.5406C0.2103 26.9028 5.49552 31.9593 12.8825 31.9346C14.3473 31.9731 15.8045 31.7123 17.165 31.1681C18.5256 30.6239 19.7607 29.8078 20.7948 28.7696V30.8219C20.7948 30.9859 20.8599 31.1431 20.9759 31.259C21.0918 31.3749 21.249 31.4401 21.413 31.4401H25.1219C25.2858 31.4401 25.443 31.3749 25.559 31.259C25.6749 31.1431 25.74 30.9859 25.74 30.8219V7.33209C25.74 7.16814 25.6749 7.01088 25.559 6.89496C25.443 6.77903 25.2858 6.71393 25.1219 6.71393H21.413C21.249 6.71393 21.0918 6.77903 20.9759 6.89496C20.8599 7.01088 20.7948 7.16814 20.7948 7.33209V9.38432C18.588 7.14661 15.4601 5.99684 11.7512 6.29355C8.47264 6.58544 5.42981 8.12009 3.24616 10.583ZM12.8577 10.7443C17.6051 10.7443 20.7701 14.107 20.7701 19.1017C20.7701 24.0964 17.5557 27.4097 12.8577 27.4097C8.15976 27.4097 4.94535 24.0964 4.94535 19.1017C4.94535 14.107 8.1103 10.7443 12.8577 10.7443ZM33.3804 9.40901V7.35673C33.3804 7.19279 33.3153 7.03557 33.1994 6.91964C33.0834 6.80371 32.9262 6.73858 32.7622 6.73858H29.0533C28.8894 6.73858 28.7322 6.80371 28.6162 6.91964C28.5003 7.03557 28.4352 7.19279 28.4352 7.35673V30.8466C28.4352 31.0105 28.5003 31.1677 28.6162 31.2836C28.7322 31.3996 28.8894 31.4647 29.0533 31.4647H32.7622C32.9262 31.4647 33.0834 31.3996 33.1994 31.2836C33.3153 31.1677 33.3804 31.0105 33.3804 30.8466V19.1016C33.3804 14.379 36.2054 11.1151 40.5201 10.7751C40.6764 10.7641 40.8227 10.6942 40.9295 10.5794C41.0362 10.4647 41.0953 10.3137 41.095 10.1569V6.87455C41.095 6.71061 41.0298 6.55339 40.9139 6.43746C40.798 6.32154 40.6408 6.2564 40.4768 6.2564C37.7972 6.3695 35.2606 7.4964 33.3804 9.40901Z" fill="#24160B"/>
</svg>
